<svg version="1.1" xmlns="http://www.w3.org/2000/svg" xmlns:xlink="http://www.w3.org/1999/xlink" width="106.61988" height="105.30437" viewBox="0,0,106.61988,105.30437"><g transform="translate(-191.19728,-135.86685)"><g data-paper-data="{&quot;isPaintingLayer&quot;:true}" fill-rule="nonzero" stroke-linejoin="miter" stroke-miterlimit="10" stroke-dasharray="" stroke-dashoffset="0" style="mix-blend-mode: normal"><path d="M290,177.76683c0,3.0889 9.87036,58.71281 3.89684,61.40439c-1.58378,0.71363 -92.11754,-0.70811 -92.11754,-0.70811c0,0 -1.61273,-49.61614 1.51914,-45.26038c3.76063,2.79576 26.28561,3.46411 25.60156,3.46411c-5.61062,0 -15.26298,-0.33215 -23.77737,-3.16699c-6.12262,-2.0385 -9.43629,-6.14377 -10.32263,-8.73301c-4.45054,-8.17485 1.46128,-17.67824 4.50283,-23.04175c3.0955,-5.45865 8.19737,-9.78318 11.54963,-13.41492c0.72477,-0.7852 -8.70059,9.16755 -8.70059,9.16755c0,0 -1.07696,0.94725 -4.6603,-2.7528c-2.46194,-2.95451 2.55924,-11.62653 9.67569,-14.79819c3.17773,-1.41625 7.53372,-2.58558 10.64626,-2.25321c2.44189,0.26075 3.88774,1.9841 4.94764,1.6239c2.68923,-0.91393 5.42239,-1.43057 8.13884,-1.43057c7.3842,0 27.88419,0.98722 35.75545,4.78811c0.90721,0.43807 14.15948,-2.66306 20.14799,1.48462c2.59902,1.8001 5.87589,6.64119 2.578,11.19855c-1.07255,1.48216 -6.44236,3.40932 -8.21456,1.69452c-3.46399,-3.35179 -6.72312,-8.02565 -6.03916,-7.23546c7.98593,9.22635 14.87228,23.54182 14.87228,27.96965z" fill="#ffffff" stroke="#000000" stroke-width="4" stroke-linecap="butt"/><path d="M239,176.80014c0,0 -1.05742,3.05112 -3.19566,3.23584c-3.27666,0.28306 -3.40434,-2.43584 -3.40434,-2.43584" fill="none" stroke="#000000" stroke-width="2" stroke-linecap="round"/><path d="M212.8,208.7334c0,0 -0.16944,6.57285 -5,9.6c-2.35745,1.47734 -1.2,-9.6 -1.2,-9.6" fill="none" stroke="#000000" stroke-width="2" stroke-linecap="round"/><path d="M257.4,207.60008c0,0 0.14365,4.03935 -0.74052,7.21655c-0.92052,3.30781 -1.24369,5.93586 -2.21876,6.09747c-2.43123,0.40295 -4.8732,-2.93842 -6.4604,-5.73028c-1.09274,-1.9221 -1.78033,-3.58375 -1.78033,-3.58375" fill="none" stroke="#000000" stroke-width="2.5" stroke-linecap="round"/><path d="M242.6,191.93334l4.4,-1.8" fill="#000000" stroke="#000000" stroke-width="2" stroke-linecap="round"/><path d="M231.9,164.93333c0,-1.38071 1.11929,-2.5 2.5,-2.5c1.38071,0 2.5,1.11929 2.5,2.5c0,1.38071 -1.11929,2.5 -2.5,2.5c-1.38071,0 -2.5,-1.11929 -2.5,-2.5z" fill="#000000" stroke="none" stroke-width="0.5" stroke-linecap="butt"/><path d="M241.5,165.53333c0,-1.38071 1.11929,-2.5 2.5,-2.5c1.38071,0 2.5,1.11929 2.5,2.5c0,1.38071 -1.11929,2.5 -2.5,2.5c-1.38071,0 -2.5,-1.11929 -2.5,-2.5z" fill="#000000" stroke="none" stroke-width="0.5" stroke-linecap="butt"/></g></g></svg>
