<svg version="1.1" xmlns="http://www.w3.org/2000/svg" xmlns:xlink="http://www.w3.org/1999/xlink" width="104" height="104" viewBox="0,0,104,104"><g transform="translate(-188,-128)"><g data-paper-data="{&quot;isPaintingLayer&quot;:true}" fill-rule="nonzero" stroke-linejoin="miter" stroke-miterlimit="10" stroke-dasharray="" stroke-dashoffset="0" style="mix-blend-mode: normal"><path d="M188,180c0,-28.71881 23.28119,-52 52,-52c28.7188,0 52,23.28119 52,52c0,28.71881 -23.2812,52 -52,52c-28.71881,0 -52,-23.28119 -52,-52z" fill="#ffe600" stroke="none" stroke-width="0" stroke-linecap="butt"/><path d="M205.12423,167.37585c0,0 0.16876,-11.82393 13.25,-12c12.66267,-0.17044 12.25,12 12.25,12" fill="none" stroke="#ffffff" stroke-width="15" stroke-linecap="round"/><path d="M249.37423,167.62585c0,0 0.16877,-11.32393 13.25,-11.5c12.66267,-0.17044 12.25,11.5 12.25,11.5" fill="none" stroke="#ffffff" stroke-width="15" stroke-linecap="round"/><path d="M202.75,167.19793c0,-1.38071 1.11929,-2.5 2.5,-2.5c1.38071,0 2.5,1.11929 2.5,2.5c0,1.38071 -1.11929,2.5 -2.5,2.5c-1.38071,0 -2.5,-1.11929 -2.5,-2.5z" fill="#000000" stroke="none" stroke-width="0.5" stroke-linecap="butt"/><path d="M246.25,167.19793c0,-1.38071 1.11929,-2.5 2.5,-2.5c1.38071,0 2.5,1.11929 2.5,2.5c0,1.38071 -1.11929,2.5 -2.5,2.5c-1.38071,0 -2.5,-1.11929 -2.5,-2.5z" fill="#000000" stroke="none" stroke-width="0.5" stroke-linecap="butt"/><path d="M206.74995,187.51755c0,0 -0.60233,29.57954 32.75803,29.01426c32.30785,-0.54745 32.99202,-29.01426 32.99202,-29.01426" fill="none" stroke="#ffffff" stroke-width="5" stroke-linecap="round"/></g></g></svg>